<svg fill="none" height="24" viewBox="0 0 65 26" width="60" xmlns="http://www.w3.org/2000/svg" class="hidden md:block"><path d="M32.1986 19.8707C29.2227 19.8707 26.7087 18.0913 25.9391 15.0266H44.8715C45.3846 6.42586 40.4077 0 31.9933 0C24.9129 0 18.7047 5.48669 18.7047 13C18.7047 20.4639 24.9129 26 32.1986 26C37.1754 26 41.4339 23.8251 43.8966 19.9202L38.4068 16.2624C36.9188 18.4867 35.2257 19.8707 32.1986 19.8707ZM32.0446 6.07985C35.3796 6.07985 37.1241 8.20532 37.4832 10.3308H26.1956C27.1191 7.6616 29.428 6.07985 32.0446 6.07985Z" fill="#0B100E"></path><path d="M59.6127 0C52.2245 0 45.8624 5.48669 45.8624 13C45.8624 20.5133 52.2245 26 59.6127 26C61.665 26 63.3582 25.654 65 25.0114V17.6958C63.666 18.6844 62.1781 19.3764 60.0232 19.3764C56.483 19.3764 53.3532 16.8555 53.3532 13C53.3532 9.14449 56.483 6.62357 60.0232 6.62357C62.1781 6.62357 63.666 7.26616 64.9487 8.30418V0.988593C63.3582 0.346007 61.665 0 59.6127 0Z" fill="#0B100E"></path><path d="M0 0H7.8161V26H0V0Z" fill="#0B100E"></path><path d="M19.1836 5.2725C19.1836 8.18442 16.7334 10.545 13.7108 10.545C10.6883 10.545 8.23806 8.18442 8.23806 5.2725C8.23806 2.36058 10.6883 0 13.7108 0C16.7334 0 19.1836 2.36058 19.1836 5.2725Z" fill="#0B100E"></path></svg>